REM DIRINDEX 1\8,1\2\11,1\3\12,1\3\14,1\5\15,1\5\16,1\6\17,1\6\18,1\4\19,1\4\20,1\4\21,1\4\22,1\7\23,1\7\24,1\7\25,1\2\9\26,1\2\9\27,1\2\10\28,1\2\10\29,1\2\10\30,1\2\10\31,1\2\10\32,1\3\13\33,1\3\13\34,1\3\13\35
REM DIRNAME folder01,folder02,folder03,folder04,folder05,folder06,folder07,folder08,folder09,folder10,folder11,folder12,folder13,folder14,folder15,folder16,folder17,folder18,folder19,folder20,folder21,folder22,folder23,folder24,folder25,folder26,folder27,folder28,folder29,folder30,folder31,folder32,folder33,folder34,folder35
TITLE ""
FILE "122 122_UNIT7_SET6.mp3" MP3
  TRACK 01 AUDIO
    TITLE "14:cjc123_2590"
    INDEX 01 00:00:00
  TRACK 02 AUDIO
    TITLE "0:"
    INDEX 01 00:02:55
  TRACK 03 AUDIO
    TITLE "33:cjc123_2591"
    INDEX 01 00:03:23
  TRACK 04 AUDIO
    TITLE "0:"
    INDEX 01 00:04:25
  TRACK 05 AUDIO
    TITLE "34:cjc123_2592"
    INDEX 01 00:04:48
  TRACK 06 AUDIO
    TITLE "0:"
    INDEX 01 00:05:61
  TRACK 07 AUDIO
    TITLE "35:cjc123_2593"
    INDEX 01 00:06:35
  TRACK 08 AUDIO
    TITLE "0:"
    INDEX 01 00:09:34
  TRACK 09 AUDIO
    TITLE "33:cjc123_2594"
    INDEX 01 00:10:10
  TRACK 10 AUDIO
    TITLE "0:"
    INDEX 01 00:10:63
  TRACK 11 AUDIO
    TITLE "34:cjc123_2595"
    INDEX 01 00:11:19
  TRACK 12 AUDIO
    TITLE "0:"
    INDEX 01 00:12:05
  TRACK 13 AUDIO
    TITLE "35:cjc123_2596"
    INDEX 01 00:12:54
  TRACK 14 AUDIO
    TITLE "0:"
    INDEX 01 00:18:13
  TRACK 15 AUDIO
    TITLE "33:cjc123_2597"
    INDEX 01 00:18:60
  TRACK 16 AUDIO
    TITLE "0:"
    INDEX 01 00:20:08
  TRACK 17 AUDIO
    TITLE "34:cjc123_2598"
    INDEX 01 00:20:32
  TRACK 18 AUDIO
    TITLE "0:"
    INDEX 01 00:21:49
  TRACK 19 AUDIO
    TITLE "35:cjc123_2599"
    INDEX 01 00:22:29
  TRACK 20 AUDIO
    TITLE "0:"
    INDEX 01 00:27:32
  TRACK 21 AUDIO
    TITLE "33:cjc123_2600"
    INDEX 01 00:28:17
  TRACK 22 AUDIO
    TITLE "0:"
    INDEX 01 00:29:21
  TRACK 23 AUDIO
    TITLE "34:cjc123_2601"
    INDEX 01 00:29:56
  TRACK 24 AUDIO
    TITLE "0:"
    INDEX 01 00:30:67
  TRACK 25 AUDIO
    TITLE "35:cjc123_2602"
    INDEX 01 00:31:39
  TRACK 26 AUDIO
    TITLE "0:"
    INDEX 01 00:36:54
  TRACK 27 AUDIO
    TITLE "33:cjc123_2603"
    INDEX 01 00:37:30
  TRACK 28 AUDIO
    TITLE "0:"
    INDEX 01 00:38:31
  TRACK 29 AUDIO
    TITLE "34:cjc123_2604"
    INDEX 01 00:38:67
  TRACK 30 AUDIO
    TITLE "0:"
    INDEX 01 00:39:70
  TRACK 31 AUDIO
    TITLE "35:cjc123_2605"
    INDEX 01 00:40:46
  TRACK 32 AUDIO
    TITLE "0:"
    INDEX 01 00:46:41
  TRACK 33 AUDIO
    TITLE "33:cjc123_2606"
    INDEX 01 00:47:21
  TRACK 34 AUDIO
    TITLE "0:"
    INDEX 01 00:48:30
  TRACK 35 AUDIO
    TITLE "34:cjc123_2607"
    INDEX 01 00:48:63
  TRACK 36 AUDIO
    TITLE "0:"
    INDEX 01 00:50:05
  TRACK 37 AUDIO
    TITLE "35:cjc123_2608"
    INDEX 01 00:50:54
  TRACK 38 AUDIO
    TITLE "0:"
    INDEX 01 00:55:69
  TRACK 39 AUDIO
    TITLE "33:cjc123_2609"
    INDEX 01 00:56:41
  TRACK 40 AUDIO
    TITLE "0:"
    INDEX 01 00:57:66
  TRACK 41 AUDIO
    TITLE "34:cjc123_2610"
    INDEX 01 00:58:09
  TRACK 42 AUDIO
    TITLE "0:"
    INDEX 01 00:59:16
  TRACK 43 AUDIO
    TITLE "35:cjc123_2611"
    INDEX 01 00:59:65
  TRACK 44 AUDIO
    TITLE "0:"
    INDEX 01 01:04:27
  TRACK 45 AUDIO
    TITLE "33:cjc123_2612"
    INDEX 01 01:05:05
  TRACK 46 AUDIO
    TITLE "0:"
    INDEX 01 01:06:10
  TRACK 47 AUDIO
    TITLE "34:cjc123_2613"
    INDEX 01 01:06:40
  TRACK 48 AUDIO
    TITLE "0:"
    INDEX 01 01:07:41
  TRACK 49 AUDIO
    TITLE "35:cjc123_2614"
    INDEX 01 01:08:19
  TRACK 50 AUDIO
    TITLE "0:"
    INDEX 01 01:13:40
  TRACK 51 AUDIO
    TITLE "33:cjc123_2615"
    INDEX 01 01:14:17
  TRACK 52 AUDIO
    TITLE "0:"
    INDEX 01 01:15:23
  TRACK 53 AUDIO
    TITLE "34:cjc123_2616"
    INDEX 01 01:15:56
  TRACK 54 AUDIO
    TITLE "0:"
    INDEX 01 01:16:69
  TRACK 55 AUDIO
    TITLE "35:cjc123_2617"
    INDEX 01 01:17:49
  TRACK 56 AUDIO
    TITLE "0:"
    INDEX 01 01:25:47
  TRACK 57 AUDIO
    TITLE "33:cjc123_2618"
    INDEX 01 01:26:30
  TRACK 58 AUDIO
    TITLE "0:"
    INDEX 01 01:27:36
  TRACK 59 AUDIO
    TITLE "34:cjc123_2619"
    INDEX 01 01:27:59
  TRACK 60 AUDIO
    TITLE "0:"
    INDEX 01 01:28:67
  TRACK 61 AUDIO
    TITLE "35:cjc123_2620"
    INDEX 01 01:29:45
  TRACK 62 AUDIO
    TITLE "0:"
    INDEX 01 01:35:10
  TRACK 63 AUDIO
    TITLE "33:cjc123_2621"
    INDEX 01 01:35:59
  TRACK 64 AUDIO
    TITLE "0:"
    INDEX 01 01:36:62
  TRACK 65 AUDIO
    TITLE "34:cjc123_2622"
    INDEX 01 01:37:22
  TRACK 66 AUDIO
    TITLE "0:"
    INDEX 01 01:38:30
  TRACK 67 AUDIO
    TITLE "35:cjc123_2623"
    INDEX 01 01:39:02
  TRACK 68 AUDIO
    TITLE "0:"
    INDEX 01 01:45:30
  TRACK 69 AUDIO
    TITLE "33:cjc123_2624"
    INDEX 01 01:46:04
  TRACK 70 AUDIO
    TITLE "0:"
    INDEX 01 01:47:11
  TRACK 71 AUDIO
    TITLE "34:cjc123_2625"
    INDEX 01 01:47:35
  TRACK 72 AUDIO
    TITLE "0:"
    INDEX 01 01:48:40
  TRACK 73 AUDIO
    TITLE "35:cjc123_2626"
    INDEX 01 01:49:14
  TRACK 74 AUDIO
    TITLE "0:"
    INDEX 01 01:54:27
  TRACK 75 AUDIO
    TITLE "33:cjc123_2627"
    INDEX 01 01:55:01
  TRACK 76 AUDIO
    TITLE "0:"
    INDEX 01 01:56:22
  TRACK 77 AUDIO
    TITLE "34:cjc123_2628"
    INDEX 01 01:56:45
  TRACK 78 AUDIO
    TITLE "0:"
    INDEX 01 01:57:58
  TRACK 79 AUDIO
    TITLE "35:cjc123_2629"
    INDEX 01 01:58:34
  TRACK 80 AUDIO
    TITLE "0:"
    INDEX 01 02:03:24
  TRACK 81 AUDIO
    TITLE "33:cjc123_2630"
    INDEX 01 02:03:73
  TRACK 82 AUDIO
    TITLE "0:"
    INDEX 01 02:05:09
  TRACK 83 AUDIO
    TITLE "34:cjc123_2631"
    INDEX 01 02:05:34
  TRACK 84 AUDIO
    TITLE "0:"
    INDEX 01 02:06:54
  TRACK 85 AUDIO
    TITLE "35:cjc123_2632"
    INDEX 01 02:07:31
  TRACK 86 AUDIO
    TITLE "0:"
    INDEX 01 02:12:01
  TRACK 87 AUDIO
    TITLE "33:cjc123_2633"
    INDEX 01 02:12:52
  TRACK 88 AUDIO
    TITLE "0:"
    INDEX 01 02:13:73
  TRACK 89 AUDIO
    TITLE "34:cjc123_2634"
    INDEX 01 02:14:22
  TRACK 90 AUDIO
    TITLE "0:"
    INDEX 01 02:15:39
  TRACK 91 AUDIO
    TITLE "35:cjc123_2635"
    INDEX 01 02:16:09
  TRACK 92 AUDIO
    TITLE "0:"
    INDEX 01 02:22:00
